<svg xmlns="http://www.w3.org/2000/svg" width="107px" height="119px" style="shape-rendering:geometricPrecision;text-rendering:geometricPrecision;image-rendering:optimizeQuality;fill-rule:evenodd;clip-rule:evenodd"><path style="opacity:0.962" fill="#000000" d="M106.5 14.5v72h-4v5h-5v4h-5v5h-5v4h-4v5h-5v5h-5v4h-36v-4h-4v-5h-16c.6667 4-1 5.667-5 5v4h-8v-11h7v-4h4v-6h65v-5h5v-66h-5v-5h-21v70h-12v-70h-33v-5h-5v-4h-5v-5h-4v-7h92v4h5v5h5v5h4Z"/><path style="opacity:0.954" fill="#000000" d="M19.5 27.5h21v64h-21v-24H.5v-12h19v-6H.5v-12h19v-10Z"/>
    <style>
        path { fill: #000; }
        @media (prefers-color-scheme: dark) {
            path { fill: #FFF; }
        }
    </style>
</svg>

